<?xml version="1.0" standalone="no"?>
<!DOCTYPE svg PUBLIC "-//W3C//DTD SVG 20010904//EN"
 "http://www.w3.org/TR/2001/REC-SVG-20010904/DTD/svg10.dtd">
<svg version="1.0" xmlns="http://www.w3.org/2000/svg"
 width="255.000000pt" height="90.000000pt" viewBox="0 0 255.000000 90.000000"
 preserveAspectRatio="xMidYMid meet">

<g transform="translate(0.000000,90.000000) scale(0.100000,-0.100000)"
fill="#000000" stroke="none">
<path d="M180 475 c0 -87 3 -105 15 -105 11 0 15 12 15 50 l0 50 45 0 45 0 0
-50 c0 -38 4 -50 15 -50 12 0 15 18 15 105 0 87 -3 105 -15 105 -11 0 -15 -11
-15 -40 l0 -40 -45 0 -45 0 0 40 c0 29 -4 40 -15 40 -12 0 -15 -18 -15 -105z"/>
<path d="M370 475 l0 -105 60 0 c47 0 60 3 60 15 0 11 -12 15 -45 15 l-45 0 0
90 c0 73 -3 90 -15 90 -12 0 -15 -18 -15 -105z"/>
<path d="M520 475 l0 -105 60 0 c47 0 60 3 60 15 0 11 -12 15 -45 15 l-45 0 0
90 c0 73 -3 90 -15 90 -12 0 -15 -18 -15 -105z"/>
<path d="M693 565 c-49 -34 -49 -146 0 -180 73 -51 156 31 128 126 -19 63 -79
88 -128 54z m88 -32 c8 -9 14 -35 14 -58 0 -23 -6 -49 -14 -58 -17 -21 -64
-22 -81 -2 -18 21 -18 98 -1 118 17 22 65 22 82 0z"/>
<path d="M872 483 c16 -54 33 -102 37 -106 4 -4 16 20 26 53 10 34 22 63 26
66 4 2 17 -26 29 -62 12 -36 25 -62 29 -57 8 8 61 181 61 196 0 4 -6 7 -13 7
-7 0 -21 -32 -33 -72 l-21 -73 -22 74 c-13 40 -26 70 -31 65 -4 -5 -17 -38
-27 -74 l-20 -65 -17 60 c-24 86 -24 85 -40 85 -11 0 -8 -20 16 -97z"/>
<path d="M1110 475 c0 -87 3 -105 15 -105 11 0 15 12 15 50 0 28 5 50 10 50 6
0 25 -22 42 -50 43 -69 69 -68 32 1 -26 47 -27 52 -11 60 11 7 17 22 17 44 0
41 -20 55 -79 55 l-41 0 0 -105z m85 45 c0 -20 -6 -26 -27 -28 -25 -3 -28 0
-28 28 0 28 3 31 28 28 21 -2 27 -8 27 -28z"/>
<path d="M1280 475 l0 -105 60 0 c47 0 60 3 60 15 0 11 -12 15 -50 15 l-50 0
0 90 c0 53 -4 90 -10 90 -6 0 -10 -42 -10 -105z"/>
<path d="M1420 475 l0 -105 34 0 c80 0 123 48 113 124 -8 56 -44 86 -103 86
l-44 0 0 -105z m106 50 c11 -17 15 -37 11 -61 -8 -47 -23 -64 -58 -64 l-29 0
0 75 0 75 30 0 c21 0 35 -8 46 -25z"/>
</g>
</svg>
